<svg width="24" height="24" viewBox="0 0 24 24" fill="none" xmlns="http://www.w3.org/2000/svg">
<path d="M20.25 3.75H3.75C3.35218 3.75 2.97064 3.90804 2.68934 4.18934C2.40804 4.47064 2.25 4.85218 2.25 5.25V18.75C2.25 19.1478 2.40804 19.5294 2.68934 19.8107C2.97064 20.092 3.35218 20.25 3.75 20.25H20.25C20.6478 20.25 21.0294 20.092 21.3107 19.8107C21.592 19.5294 21.75 19.1478 21.75 18.75V5.25C21.75 4.85218 21.592 4.47064 21.3107 4.18934C21.0294 3.90804 20.6478 3.75 20.25 3.75ZM14.625 8.25C14.8475 8.25 15.065 8.31598 15.25 8.4396C15.435 8.56321 15.5792 8.73891 15.6644 8.94448C15.7495 9.15005 15.7718 9.37625 15.7284 9.59448C15.685 9.81271 15.5778 10.0132 15.4205 10.1705C15.2632 10.3278 15.0627 10.435 14.8445 10.4784C14.6262 10.5218 14.4 10.4995 14.1945 10.4144C13.9889 10.3292 13.8132 10.185 13.6896 10C13.566 9.81501 13.5 9.5975 13.5 9.375C13.5 9.07663 13.6185 8.79048 13.8295 8.5795C14.0405 8.36853 14.3266 8.25 14.625 8.25ZM20.25 18.75H3.75V15.0647L8.09437 10.7194C8.16403 10.6496 8.24675 10.5943 8.33779 10.5566C8.42884 10.5188 8.52644 10.4994 8.625 10.4994C8.72356 10.4994 8.82116 10.5188 8.91221 10.5566C9.00325 10.5943 9.08597 10.6496 9.15563 10.7194L15.4688 17.0306C15.6095 17.1714 15.8004 17.2504 15.9994 17.2504C16.1984 17.2504 16.3893 17.1714 16.53 17.0306C16.6707 16.8899 16.7498 16.699 16.7498 16.5C16.7498 16.301 16.6707 16.1101 16.53 15.9694L14.8744 14.3147L16.2188 12.9694C16.3594 12.8288 16.5501 12.7499 16.7489 12.7499C16.9477 12.7499 17.1384 12.8288 17.2791 12.9694L20.25 15.9441V18.75Z" fill="#58A9F0"/>
</svg>
